{
  "source": "C:\\Users\\Peter\\Desktop\\stuff\\MIUN\\quantitative_research\\video_compression\\videos\\BVI-HD\\RockWave_1920x1080_30fps.mp4",
  "output": "C:\\Users\\Peter\\Desktop\\stuff\\MIUN\\quantitative_research\\video_compression\\compressed_videos\\BVI-HD\\av1\\1.5\\RockWave_1920x1080_30fps_av1.mkv",
  "codec": "av1",
  "ok": "Input #0, mov,mp4,m4a,3gp,3g2,mj2, from 'C:\\Users\\Peter\\Desktop\\stuff\\MIUN\\quantitative_research\\video_compression\\videos\\BVI-HD\\RockWave_1920x1080_30fps.mp4':\n  Metadata:\n    major_brand     : isom\n    minor_version   : 512\n    compatible_brands: isomiso2avc1mp41\n    encoder         : Lavf54.28.101\n  Duration: 00:00:05.00, start: 0.000000, bitrate: 303557 kb/s\n  Stream #0:0[0x1](und): Video: h264 (High 4:4:4 Predictive) (avc1 / 0x31637661), yuv420p(progressive), 1920x1080, 303553 kb/s, 30 fps, 30 tbr, 30 tbn (default)\n    Metadata:\n      handler_name    : VideoHandler\n      vendor_id       : [0][0][0][0]\n[out#0/matroska @ 000002be54660c00] Codec AVOption b:a (set bitrate (in bits/s)) has not been used for any stream. The most likely reason is either wrong type (e.g. a video option with no video streams) or that it is a private option of some decoder which was not actually used for any stream.\nStream mapping:\n  Stream #0:0 -> #0:0 (h264 (native) -> av1 (libsvtav1))\nPress [q] to stop, [?] for help\nSvt[info]: -------------------------------------------\nSvt[info]: SVT [version]:\tSVT-AV1 Encoder Lib v3.1.0-19-g6ecfe8ec\nSvt[info]: SVT [build]  :\tGCC 15.2.0\t 64 bit\nSvt[info]: LIB Build date: Aug 17 2025 11:37:13\nSvt[info]: -------------------------------------------\nSvt[info]: Level of Parallelism: 5\nSvt[info]: Number of PPCS 93\nSvt[info]: [asm level on system : up to avx2]\nSvt[info]: [asm level selected : up to avx2]\nSvt[info]: -------------------------------------------\nSvt[info]: SVT [config]: main profile\ttier (auto)\tlevel (auto)\nSvt[info]: SVT [config]: width / height / fps numerator / fps denominator \t\t: 1920 / 1080 / 30 / 1\nSvt[info]: SVT [config]: bit-depth / color format \t\t\t\t\t: 8 / YUV420\nSvt[info]: SVT [config]: preset / tune / pred struct \t\t\t\t\t: 4 / PSNR / random access\nSvt[info]: SVT [config]: gop size / mini-gop size / key-frame type \t\t\t: 161 / 16 / key frame\nSvt[info]: SVT [config]: BRC mode / target bitrate (kbps)\t\t\t\t: VBR / 1500 \nSvt[info]: SVT [config]: AQ mode / Variance Boost \t\t\t\t\t: 2 / 0\nSvt[info]: SVT [config]: sharpness / luminance-based QP bias \t\t\t\t: 0 / 0\nSvt[info]: SVT [config]: QP scale compress strength \t\t\t\t\t: 0\nSvt[info]: -------------------------------------------\nOutput #0, matroska, to 'C:\\Users\\Peter\\Desktop\\stuff\\MIUN\\quantitative_research\\video_compression\\compressed_videos\\BVI-HD\\av1\\1.5\\RockWave_1920x1080_30fps_av1.mkv':\n  Metadata:\n    major_brand     : isom\n    minor_version   : 512\n    compatible_brands: isomiso2avc1mp41\n    encoder         : Lavf62.3.100\n  Stream #0:0(und): Video: av1 (AV01 / 0x31305641), yuv420p(tv, progressive), 1920x1080, q=2-31, 1500 kb/s, 30 fps, 1k tbn (default)\n    Metadata:\n      encoder         : Lavc62.11.100 libsvtav1\n      handler_name    : VideoHandler\n      vendor_id       : [0][0][0][0]\n    Side data:\n      cpb: bitrate max/min/avg: 0/0/1500000 buffer size: 1500000 vbv_delay: N/A\nframe=    0 fps=0.0 q=0.0 size=       0KiB time=N/A bitrate=N/A speed=N/A elapsed=0:00:01.02    \nframe=    0 fps=0.0 q=0.0 size=       0KiB time=N/A bitrate=N/A speed=N/A elapsed=0:00:01.55    \nframe=    0 fps=0.0 q=0.0 size=       0KiB time=N/A bitrate=N/A speed=N/A elapsed=0:00:02.07    \nframe=    0 fps=0.0 q=0.0 size=       0KiB time=N/A bitrate=N/A speed=N/A elapsed=0:00:02.58    \nframe=    0 fps=0.0 q=0.0 size=       0KiB time=N/A bitrate=N/A speed=N/A elapsed=0:00:03.11    \nframe=    0 fps=0.0 q=0.0 size=       0KiB time=N/A bitrate=N/A speed=N/A elapsed=0:00:03.63    \nframe=    0 fps=0.0 q=0.0 size=       0KiB time=N/A bitrate=N/A speed=N/A elapsed=0:00:04.15    \nframe=    1 fps=0.2 q=54.0 size=       1KiB time=00:00:00.00 bitrate=N/A speed=   0x elapsed=0:00:04.67    \nframe=    1 fps=0.2 q=54.0 size=       1KiB time=00:00:00.00 bitrate=N/A speed=   0x elapsed=0:00:05.17    \nframe=    4 fps=0.7 q=62.0 size=       1KiB time=00:00:00.10 bitrate=  57.0kbits/s speed=0.0176x elapsed=0:00:05.69    \nframe=    7 fps=1.1 q=62.0 size=       1KiB time=00:00:00.20 bitrate=  28.5kbits/s speed=0.0322x elapsed=0:00:06.21    \nframe=    9 fps=1.3 q=61.0 size=       1KiB time=00:00:00.26 bitrate=  21.4kbits/s speed=0.0395x elapsed=0:00:06.74    \nframe=   13 fps=1.8 q=61.0 size=       1KiB time=00:00:00.40 bitrate=  14.3kbits/s speed=0.0551x elapsed=0:00:07.26    \nframe=   16 fps=2.1 q=61.0 size=       1KiB time=00:00:00.50 bitrate=  11.4kbits/s speed=0.0643x elapsed=0:00:07.78    \nframe=   19 fps=2.3 q=60.0 size=       1KiB time=00:00:00.60 bitrate=   9.5kbits/s speed=0.0723x elapsed=0:00:08.29    \nframe=   22 fps=2.5 q=61.0 size=       1KiB time=00:00:00.70 bitrate=   8.1kbits/s speed=0.0795x elapsed=0:00:08.80    \nframe=   23 fps=2.5 q=60.0 size=       1KiB time=00:00:00.73 bitrate=   7.8kbits/s speed=0.0787x elapsed=0:00:09.32    \nframe=   26 fps=2.6 q=61.0 size=       1KiB time=00:00:00.83 bitrate=   6.8kbits/s speed=0.0845x elapsed=0:00:09.86    \nframe=   30 fps=2.9 q=61.0 size=       1KiB time=00:00:00.96 bitrate=   5.9kbits/s speed=0.0931x elapsed=0:00:10.38    \nframe=   35 fps=3.2 q=61.0 size=       1KiB time=00:00:01.13 bitrate=   5.0kbits/s speed=0.104x elapsed=0:00:10.89    \nframe=   38 fps=3.3 q=63.0 size=       1KiB time=00:00:01.23 bitrate=   4.6kbits/s speed=0.108x elapsed=0:00:11.41    \nframe=   39 fps=3.3 q=62.0 size=       1KiB time=00:00:01.26 bitrate=   4.5kbits/s speed=0.106x elapsed=0:00:11.93    \nframe=   45 fps=3.6 q=60.0 size=       1KiB time=00:00:01.46 bitrate=   3.9kbits/s speed=0.118x elapsed=0:00:12.44    \nframe=   51 fps=3.9 q=63.0 size=       1KiB time=00:00:01.66 bitrate=   3.4kbits/s speed=0.129x elapsed=0:00:12.96    \nframe=   57 fps=4.2 q=60.0 size=       1KiB time=00:00:01.86 bitrate=   3.1kbits/s speed=0.138x elapsed=0:00:13.47    \nframe=   57 fps=4.1 q=60.0 size=       1KiB time=00:00:01.86 bitrate=   3.1kbits/s speed=0.133x elapsed=0:00:13.99    \nframe=   65 fps=4.5 q=57.0 size=       1KiB time=00:00:02.13 bitrate=   2.7kbits/s speed=0.147x elapsed=0:00:14.51    \nframe=   69 fps=4.6 q=63.0 size=       1KiB time=00:00:02.26 bitrate=   2.5kbits/s speed=0.151x elapsed=0:00:15.03    \nframe=   73 fps=4.7 q=61.0 size=       1KiB time=00:00:02.40 bitrate=   2.4kbits/s speed=0.154x elapsed=0:00:15.54    \nframe=   79 fps=4.9 q=62.0 size=       1KiB time=00:00:02.60 bitrate=   2.2kbits/s speed=0.162x elapsed=0:00:16.05    \nframe=   85 fps=5.1 q=62.0 size=       1KiB time=00:00:02.80 bitrate=   2.0kbits/s speed=0.169x elapsed=0:00:16.57    \nframe=   89 fps=5.2 q=61.0 size=       1KiB time=00:00:02.93 bitrate=   1.9kbits/s speed=0.172x elapsed=0:00:17.08    \nframe=   95 fps=5.4 q=62.0 size=       1KiB time=00:00:03.13 bitrate=   1.8kbits/s speed=0.178x elapsed=0:00:17.59    \nframe=  101 fps=5.6 q=62.0 size=       1KiB time=00:00:03.33 bitrate=   1.7kbits/s speed=0.184x elapsed=0:00:18.11    \nframe=  105 fps=5.6 q=61.0 size=       1KiB time=00:00:03.46 bitrate=   1.6kbits/s speed=0.186x elapsed=0:00:18.64    \nframe=  113 fps=5.9 q=59.0 size=       1KiB time=00:00:03.73 bitrate=   1.5kbits/s speed=0.195x elapsed=0:00:19.15    \nframe=  117 fps=5.9 q=62.0 size=       1KiB time=00:00:03.86 bitrate=   1.5kbits/s speed=0.197x elapsed=0:00:19.66    \nframe=  121 fps=6.0 q=61.0 size=       1KiB time=00:00:04.00 bitrate=   1.4kbits/s speed=0.198x elapsed=0:00:20.18    \nframe=  129 fps=6.2 q=59.0 size=       1KiB time=00:00:04.26 bitrate=   1.3kbits/s speed=0.206x elapsed=0:00:20.70    \nframe=  137 fps=6.5 q=62.0 size=       1KiB time=00:00:04.53 bitrate=   1.3kbits/s speed=0.214x elapsed=0:00:21.21    \nframe=  143 fps=6.6 q=63.0 size=       1KiB time=00:00:04.73 bitrate=   1.2kbits/s speed=0.218x elapsed=0:00:21.73    \n[out#0/matroska @ 000002be54660c00] video:668KiB audio:0KiB subtitle:0KiB other streams:0KiB global headers:0KiB muxing overhead: 0.211464%\nframe=  150 fps=6.9 q=63.0 Lsize=     669KiB time=00:00:04.96 bitrate=1103.8kbits/s speed=0.228x elapsed=0:00:21.73    \n",
  "seconds": 22.196425437927246,
  "probe_out": {}
}